<?xml version="1.0" encoding="UTF-8"?>
<svg version="1.1" xmlns="http://www.w3.org/2000/svg" width="566" height="104">
<path d="M0 0 C1.32 2.31 2.64 4.62 4 7 C4.66 7 5.32 7 6 7 C6.81017578 5.28103516 6.81017578 5.28103516 7.63671875 3.52734375 C8.96630859 1.58935547 8.96630859 1.58935547 11 0 C16.27498842 -0.92026417 21.48935688 -0.65759206 26.8125 -0.4375 C28.28312943 -0.40236551 29.753839 -0.37043018 31.22460938 -0.34179688 C34.81807772 -0.26487912 38.40853107 -0.14421661 42 0 C42.023235 8.72792875 42.04097176 17.45584674 42.05181217 26.18379974 C42.05701667 30.23712766 42.06406985 34.29043432 42.07543945 38.34375 C42.08635516 42.26003731 42.09229515 46.17630424 42.09487724 50.09260559 C42.0967159 51.58201925 42.1003062 53.07143187 42.10573006 54.56083679 C42.1611003 70.40485 41.1383498 77.53543336 29.86230469 89.23730469 C23.7370449 94.93716937 19.04251205 97.16580805 10.65429688 97.38867188 C5.7037989 97.18701648 0.9034833 96.72346475 -4 96 C-4.99 92.7 -5.98 89.4 -7 86 C-7.55429688 86.63808594 -8.10859375 87.27617188 -8.6796875 87.93359375 C-9.40414062 88.75988281 -10.12859375 89.58617188 -10.875 90.4375 C-11.59429687 91.26121094 -12.31359375 92.08492188 -13.0546875 92.93359375 C-15.50638675 95.53790882 -16.30251164 95.9725932 -19.88916016 96.11352539 C-21.09362793 96.10828857 -22.2980957 96.10305176 -23.5390625 96.09765625 C-25.49199219 96.09282227 -25.49199219 96.09282227 -27.484375 96.08789062 C-28.86458399 96.07953466 -30.24479232 96.07106971 -31.625 96.0625 C-33.01301926 96.05748501 -34.40104022 96.0529221 -35.7890625 96.04882812 C-39.19275132 96.03700976 -42.59635439 96.02053434 -46 96 C-46.06963883 86.7332989 -46.12288156 77.46668846 -46.15543652 68.19978237 C-46.17106457 63.89635891 -46.19225028 59.59311504 -46.22631836 55.28979492 C-46.25901427 51.13359382 -46.27687452 46.97756502 -46.28463173 42.82124519 C-46.29015693 41.23887484 -46.30094627 39.65651347 -46.31719017 38.07421684 C-46.33910112 35.85062464 -46.34196133 33.62773624 -46.34057617 31.40405273 C-46.34723801 30.14052475 -46.35389984 28.87699677 -46.36076355 27.57518005 C-45.9365492 23.37120022 -44.93254864 20.74034748 -43 17 C-40.9375 15.8125 -40.9375 15.8125 -39 15 C-38.31746522 13.67471946 -37.65485773 12.33917272 -37 11 C-28.29658683 -3.42510145 -15.22029683 -1.20102773 0 0 Z " fill="#3E3E3E" transform="translate(179,4)"/>
<path d="M0 0 C5.0351671 -0.19818991 10.06805406 -0.34311223 15.10620117 -0.43945312 C16.81851754 -0.47961717 18.53056064 -0.53416398 20.24194336 -0.60351562 C34.54593465 -1.16852951 34.54593465 -1.16852951 38.26025391 1.81640625 C39.5474947 3.87599152 40.39110168 5.65559278 41 8 C41.45451538 7.14245117 41.45451538 7.14245117 41.91821289 6.26757812 C43.74200872 3.53382427 45.2728552 1.86797618 48 0 C53.8370116 -1.02342623 59.53798321 -0.75626423 65.4375 -0.5 C67.04353122 -0.45982897 68.64965886 -0.42333451 70.25585938 -0.390625 C74.17296991 -0.30288594 78.0854183 -0.16510524 82 0 C81.36556887 3.30343339 80.15634417 5.58393572 78.3046875 8.37890625 C77.75627197 9.21284912 77.20785645 10.04679199 76.64282227 10.90600586 C76.05944092 11.78264893 75.47605957 12.65929199 74.875 13.5625 C74.288396 14.45912354 73.70179199 15.35574707 73.09741211 16.27954102 C70.6107757 20.07844468 68.11200218 23.86372664 65.51171875 27.5859375 C64.86847656 28.52695312 64.22523438 29.46796875 63.5625 30.4375 C63.00691406 31.21996094 62.45132813 32.00242188 61.87890625 32.80859375 C60.73766088 34.98840647 60.73766088 34.98840647 61.69555664 37.25048828 C63.21032519 40.44332441 65.01821304 43.25142011 66.9921875 46.18359375 C67.37939972 46.76158218 67.76661194 47.33957062 68.16555786 47.93507385 C69.39770619 49.77217079 70.63620304 51.60488159 71.875 53.4375 C72.69964706 54.66442577 73.52386988 55.8916368 74.34765625 57.11914062 C75.8709194 59.38777956 77.39707946 61.65436012 78.92529297 63.91967773 C79.60994629 64.93618408 80.29459961 65.95269043 81 67 C81.76844238 68.03777588 82.53688477 69.07555176 83.32861328 70.14477539 C85 73 85 73 84.99780273 75.10668945 C83.67887287 77.60933225 82.04942101 79.30427636 80.03515625 81.29296875 C79.23529297 82.08767578 78.43542969 82.88238281 77.61132812 83.70117188 C76.77021484 84.52166016 75.92910156 85.34214844 75.0625 86.1875 C74.22525391 87.01958984 73.38800781 87.85167969 72.52539062 88.70898438 C66.92227268 94.23997851 64.58703107 96.15545445 56.65625 96.16796875 C55.93135376 96.17129715 55.20645752 96.17462555 54.45959473 96.17805481 C52.92635737 96.18311925 51.39310899 96.18546328 49.85986328 96.18530273 C47.50925657 96.18749138 45.15911751 96.20565751 42.80859375 96.22460938 C41.32031411 96.22754292 39.83203223 96.22952798 38.34375 96.23046875 C37.28589294 96.24124702 37.28589294 96.24124702 36.20666504 96.25224304 C31.22882848 96.22882848 31.22882848 96.22882848 29 94 C28.21343943 89.28063656 27.88022639 84.79094424 28 80 C27.59007812 80.5053125 27.18015625 81.010625 26.7578125 81.53125 C26.21898437 82.1809375 25.68015625 82.830625 25.125 83.5 C24.59132813 84.1496875 24.05765625 84.799375 23.5078125 85.46875 C23.01023437 85.9740625 22.51265625 86.479375 22 87 C21.34 87 20.68 87 20 87 C19.505 88.485 19.505 88.485 19 90 C18.34 90 17.68 90 17 90 C16.731875 90.61875 16.46375 91.2375 16.1875 91.875 C15 94 15 94 12 96 C9.45770403 96.1712914 7.02810519 96.23242934 4.48828125 96.1953125 C3.76005661 96.1924826 3.03183197 96.18965271 2.28153992 96.18673706 C-0.04164137 96.17555257 -2.36443547 96.15045166 -4.6875 96.125 C-6.2636663 96.11496794 -7.83983865 96.10584248 -9.41601562 96.09765625 C-13.27749267 96.07561896 -17.13868071 96.04110141 -21 96 C-20.36890477 92.76159293 -19.22106068 90.50797601 -17.41015625 87.76171875 C-16.61085693 86.54162109 -16.61085693 86.54162109 -15.79541016 85.296875 C-15.2235498 84.43578125 -14.65168945 83.5746875 -14.0625 82.6875 C-13.19310791 81.35912109 -13.19310791 81.35912109 -12.30615234 80.00390625 C-9.54584795 75.79715083 -6.75178371 71.61902821 -3.87890625 67.48828125 C-3.41154053 66.80999268 -2.9441748 66.1317041 -2.46264648 65.43286133 C-1.58931265 64.17091865 -0.70511904 62.91640363 0.19116211 61.6706543 C2.39027258 58.56610294 2.39027258 58.56610294 2.9609375 54.90625 C1.72527149 52.45501011 0.31351474 50.25987004 -1.25 48 C-1.95382812 46.9584375 -2.65765625 45.916875 -3.3828125 44.84375 C-4.81071993 42.74234433 -6.24397933 40.64486352 -7.68261719 38.55078125 C-9.51204312 35.87723272 -11.31930664 33.18961955 -13.125 30.5 C-13.72989258 29.62730469 -14.33478516 28.75460938 -14.95800781 27.85546875 C-15.51069336 27.02660156 -16.06337891 26.19773437 -16.6328125 25.34375 C-17.13699707 24.60318359 -17.64118164 23.86261719 -18.16064453 23.09960938 C-19 21 -19 21 -18.27294922 18.79101562 C-16.7501757 16.6485019 -15.32061467 16.16030734 -13 15 C-12.31731862 13.67479497 -11.6492959 12.34187818 -11 11 C-10.01 10.67 -9.02 10.34 -8 10 C-7.690625 9.360625 -7.38125 8.72125 -7.0625 8.0625 C-5.74215782 5.49948282 -4.5185326 5.2592663 -2 4 C-0.86649466 1.98330173 -0.86649466 1.98330173 0 0 Z M8 3 C9.06825188 4.82142946 10.15515702 6.63192912 11.25 8.4375 C11.85328125 9.44683594 12.4565625 10.45617187 13.078125 11.49609375 C14.76978542 14.0451818 14.76978542 14.0451818 16.984375 15.09765625 C19.20401495 15.2205736 19.20401495 15.2205736 20.828125 13.109375 C23.75515257 10.26657844 25.734707 10.41061172 29.75 10.25 C30.92046875 10.19328125 32.0909375 10.1365625 33.296875 10.078125 C34.63492188 10.03945312 34.63492188 10.03945312 36 10 C35.38722388 7.03824877 34.74627478 5.61941217 33 3 C30.38309243 2.58290642 30.38309243 2.58290642 27.3359375 2.70703125 C26.21445312 2.71669922 25.09296875 2.72636719 23.9375 2.73632812 C22.761875 2.76146484 21.58625 2.78660156 20.375 2.8125 C19.19164062 2.82603516 18.00828125 2.83957031 16.7890625 2.85351562 C13.85892461 2.88896084 10.92968541 2.93837231 8 3 Z " fill="#3C3C3C" transform="translate(480,4)"/>
<path d="M0 0 C1.80381117 0.05265653 3.60788612 0.09695297 5.41210938 0.1328125 C16.681896 0.49589629 25.65081794 1.94759732 33.875 10.25 C38.56826626 16.12486506 41.16853046 23.94394479 40.9375 31.5 C39.42273298 40.26311499 36.27586391 46.26749603 29.9375 52.5 C30.30512451 52.94802979 30.67274902 53.39605957 31.05151367 53.85766602 C32.74494085 55.92409946 34.43498269 57.99327708 36.125 60.0625 C36.70314453 60.76697266 37.28128906 61.47144531 37.87695312 62.19726562 C41.40577275 66.52355861 44.7425985 70.92124286 47.9375 75.5 C45.26296154 80.82810015 41.07311556 84.62240981 36.875 88.75 C36.14216797 89.4821875 35.40933594 90.214375 34.65429688 90.96875 C29.33736796 96.24173735 26.97333385 97.65634337 19.41015625 97.66796875 C18.29307533 97.67296135 18.29307533 97.67296135 17.15342712 97.67805481 C15.57730731 97.68312026 14.00117677 97.68546325 12.42504883 97.68530273 C10.0130039 97.68748822 7.60141703 97.70564468 5.18945312 97.72460938 C3.65885573 97.72754357 2.12825617 97.72952819 0.59765625 97.73046875 C-0.12429428 97.73765427 -0.84624481 97.74483978 -1.59007263 97.75224304 C-5.30493462 97.73528628 -6.88738256 97.61674496 -10.0625 95.5 C-11.0525 96.49 -11.0525 96.49 -12.0625 97.5 C-14.85986328 97.72705078 -14.85986328 97.72705078 -18.3828125 97.6953125 C-20.26806641 97.68564453 -20.26806641 97.68564453 -22.19140625 97.67578125 C-23.51011719 97.65902344 -24.82882812 97.64226562 -26.1875 97.625 C-27.52733721 97.61496983 -28.86718152 97.60584404 -30.20703125 97.59765625 C-33.49236573 97.57402075 -36.77734465 97.54107234 -40.0625 97.5 C-40.50660964 87.79006404 -40.84217318 78.08371575 -41.04693127 68.36577129 C-41.14531831 63.85058488 -41.27816823 59.3424331 -41.49584961 54.83129883 C-43.0398251 21.92583047 -43.0398251 21.92583047 -34.25054932 11.06697083 C-23.98734933 0.7709244 -13.99167237 -1.09356067 0 0 Z " fill="#373837" transform="translate(348.0625,2.5)"/>
<path d="M0 0 C0.05927768 7.71704154 0.05808424 15.43228202 0.01220703 23.14941406 C0.00420937 25.67219543 0.00988825 28.19506575 0.03076172 30.71777344 C0.05777675 34.22972756 0.03410274 37.73817536 0 41.25 C0.0194165 42.32491699 0.03883301 43.39983398 0.05883789 44.50732422 C-0.08198688 51.85709158 -0.08198688 51.85709158 -2.75097656 55.17993164 C-4.75862947 56.935368 -6.82598401 58.45993821 -9 60 C-9.93800897 60.958741 -10.85791126 61.93588989 -11.75 62.9375 C-14 65 -14 65 -18 65 C-17.91878906 65.556875 -17.83757813 66.11375 -17.75390625 66.6875 C-17.47296649 70.08171099 -17.35788141 72.86394404 -19.06640625 75.88671875 C-20.625 77.6875 -20.625 77.6875 -22.625 79.60546875 C-24.57892645 81.57546368 -25.99252729 83.36078721 -27.5625 85.61328125 C-31.62934998 90.97768552 -35.45647219 95.45646621 -42.39788818 96.52119446 C-46.29236385 96.63871081 -50.13072547 96.5677198 -54.0234375 96.40625 C-55.38233585 96.37358408 -56.74131029 96.34393717 -58.1003418 96.31738281 C-61.402195 96.24117493 -64.70009674 96.13458104 -68 96 C-68.069544 86.4379886 -68.12283356 76.8760644 -68.15543652 67.31385517 C-68.17108517 62.87361524 -68.19230877 58.43354848 -68.22631836 53.9934082 C-68.25894044 49.70753975 -68.27685904 45.42183776 -68.28463173 41.13585472 C-68.29017013 39.50159269 -68.30098535 37.86733965 -68.31719017 36.23314857 C-68.33900272 33.94209814 -68.34196539 31.65173346 -68.34057617 29.3605957 C-68.34723801 28.05709671 -68.35389984 26.75359772 -68.36076355 25.41059875 C-67.97512706 21.76485531 -67.1045095 19.95049017 -65 17 C-64.62399658 16.29770264 -64.24799316 15.59540527 -63.8605957 14.87182617 C-50.92143295 -7.83103203 -22.32687829 -1.49548015 0 0 Z " fill="#3D3D3D" transform="translate(71,4)"/>
<path d="M0 0 C2.59492856 0.06026429 5.18999164 0.11500457 7.78515625 0.1640625 C14.10973021 0.29557733 20.42923388 0.49572404 26.75 0.75 C26.83729047 4.81236402 26.89048992 8.87448589 26.9375 12.9375 C26.96263672 14.08798828 26.98777344 15.23847656 27.01367188 16.42382812 C27.02333984 17.53564453 27.03300781 18.64746094 27.04296875 19.79296875 C27.0586792 20.81414795 27.07438965 21.83532715 27.09057617 22.88745117 C26.44880434 28.28155488 23.51506921 31.00849642 19.59765625 34.43359375 C13.55799534 41.10275988 14.89747957 49.35455717 15.1875 57.8125 C15.7597702 75.68480152 15.7597702 75.68480152 11.6171875 80.46875 C10.35754259 81.59625428 9.06869091 82.69215999 7.75 83.75 C6.65816364 84.86164437 5.57811942 85.98502621 4.51171875 87.12109375 C3.48957346 88.14582348 2.46486703 89.16800551 1.4375 90.1875 C0.91349609 90.71537109 0.38949219 91.24324219 -0.15039062 91.78710938 C-5.07992864 96.70402373 -5.07992864 96.70402373 -9.13916016 96.86352539 C-10.34362793 96.85828857 -11.5480957 96.85305176 -12.7890625 96.84765625 C-14.74199219 96.84282227 -14.74199219 96.84282227 -16.734375 96.83789062 C-18.11458399 96.82953466 -19.49479232 96.82106971 -20.875 96.8125 C-22.26301926 96.80748501 -23.65104022 96.8029221 -25.0390625 96.79882812 C-28.44275132 96.78700976 -31.84635439 96.77053434 -35.25 96.75 C-36.19337376 93.91987873 -36.37172829 92.20700082 -36.36352539 89.27856445 C-36.36344986 88.37785721 -36.36337433 87.47714996 -36.36329651 86.54914856 C-36.35813522 85.58031235 -36.35297394 84.61147614 -36.34765625 83.61328125 C-36.3462413 82.61870407 -36.34482635 81.62412689 -36.34336853 80.59941101 C-36.33776761 77.42041018 -36.32521496 74.24147957 -36.3125 71.0625 C-36.30748512 68.90820414 -36.30292219 66.75390718 -36.29882812 64.59960938 C-36.28779787 59.31637916 -36.27053262 54.03320149 -36.25 48.75 C-39.88 48.42 -43.51 48.09 -47.25 47.75 C-47.45466631 43.41737174 -47.57809533 39.08599716 -47.6875 34.75 C-47.77547852 32.91888672 -47.77547852 32.91888672 -47.86523438 31.05078125 C-48.05864427 20.8276866 -48.05864427 20.8276866 -44.47265625 16.625 C-43.81499268 16.03364258 -43.1573291 15.44228516 -42.47973633 14.83300781 C-40.07657959 12.73858767 -40.07657959 12.73858767 -38.1081543 9.62792969 C-28.79568759 -3.27179656 -14.4066276 -0.58160563 0 0 Z " fill="#3B3B3B" transform="translate(274.25,3.25)"/>
<path d="M0 0 C1.39877699 0.04116644 2.79767205 0.07850661 4.19665527 0.11193848 C7.58860371 0.20776449 10.97436979 0.34185925 14.36328125 0.51171875 C14.80745889 10.09125048 15.14298487 19.6671432 15.34771252 29.25479603 C15.44608708 33.70950046 15.57890673 38.15707104 15.79663086 42.60766602 C17.27849971 73.68737357 17.27849971 73.68737357 10.11962891 83.16552734 C-1.93065299 96.29279355 -1.93065299 96.29279355 -9.41821289 96.64111328 C-11.15252563 96.64280518 -11.15252563 96.64280518 -12.921875 96.64453125 C-14.17419922 96.64582031 -15.42652344 96.64710937 -16.71679688 96.6484375 C-18.03099609 96.64457031 -19.34519531 96.64070313 -20.69921875 96.63671875 C-22.01728516 96.64058594 -23.33535156 96.64445312 -24.69335938 96.6484375 C-26.56991211 96.64650391 -26.56991211 96.64650391 -28.484375 96.64453125 C-29.63945557 96.64340332 -30.79453613 96.64227539 -31.98461914 96.64111328 C-34.63671875 96.51171875 -34.63671875 96.51171875 -35.63671875 95.51171875 C-35.74694331 93.26866579 -35.78586766 91.02209478 -35.79785156 88.77636719 C-35.80281647 88.07224197 -35.80778137 87.36811676 -35.81289673 86.64265442 C-35.82755754 84.3021244 -35.83432805 81.96166223 -35.83984375 79.62109375 C-35.84559355 77.99782305 -35.8513513 76.37455238 -35.8571167 74.75128174 C-35.8676389 71.34150881 -35.87347305 67.93175954 -35.87695312 64.52197266 C-35.88242967 60.15605061 -35.90643435 55.79044175 -35.93492508 51.42461777 C-35.95356847 48.06855362 -35.95875804 44.71256449 -35.960289 41.35645294 C-35.96331402 39.74731999 -35.9713375 38.13818831 -35.98447418 36.52910614 C-36.00156491 34.2740468 -35.99964703 32.01974661 -35.99316406 29.76464844 C-35.99680969 28.48193054 -36.00045532 27.19921265 -36.00421143 25.87762451 C-35.60928908 22.26048738 -34.73838148 20.43553542 -32.63671875 17.51171875 C-32.16645264 16.80942139 -31.69618652 16.10712402 -31.21166992 15.38354492 C-22.35021825 3.35880214 -14.84254425 -0.76674865 0 0 Z " fill="#3A3A3A" transform="translate(437.63671875,3.48828125)"/>
<path d="M0 0 C0.66163651 0.00424484 1.32327301 0.00848969 2.00495911 0.01286316 C4.11440035 0.02963182 6.22287971 0.06727776 8.33203125 0.10546875 C9.76365806 0.12051807 11.19529987 0.13420605 12.62695312 0.14648438 C16.13312413 0.17952845 19.63873379 0.23129708 23.14453125 0.29296875 C23.61237733 9.85506365 23.96540133 19.41310792 24.18077469 28.98423386 C24.28427386 33.43148337 24.42395414 37.87079846 24.65332031 42.31347656 C26.27161325 74.58081422 26.27161325 74.58081422 17.41912842 86.13018799 C10.3104477 93.63532278 3.38281538 97.06084633 -6.92369461 97.56975174 C-13.60972968 97.70968555 -20.22655496 97.15645451 -26.85546875 96.29296875 C-26.86378372 86.50441154 -26.8398584 76.71650839 -26.77519035 66.92814541 C-26.74616336 62.38254086 -26.72808957 57.83745097 -26.73535156 53.29174805 C-26.74195677 48.90173731 -26.71939302 44.51274249 -26.67691422 40.12294197 C-26.66580404 38.45132121 -26.66506405 36.77959717 -26.67504501 35.10796928 C-26.751791 20.35971815 -26.751791 20.35971815 -22.97314453 15.89086914 C-21.96143947 14.9929045 -20.92306864 14.12370222 -19.85546875 13.29296875 C-18.96859375 12.34421875 -18.08171875 11.39546875 -17.16796875 10.41796875 C-14.85546875 8.29296875 -14.85546875 8.29296875 -11.85546875 7.29296875 C-11.15395723 5.97763465 -10.4902095 4.64179283 -9.85546875 3.29296875 C-7.20348865 -0.48260593 -4.37861823 -0.05542555 0 0 Z " fill="#393A3A" transform="translate(103.85546875,3.70703125)"/>
<path d="M0 0 C19 0 19 0 23.26953125 4.0234375 C24.64257812 6.62109375 24.64257812 6.62109375 25.8125 9.375 C26.46702148 10.68017578 26.46702148 10.68017578 27.13476562 12.01171875 C27.96477396 13.66683138 28.76453675 15.33783244 29.51879883 17.02880859 C31.74570136 21.49582753 34.43198304 25.71997173 37 30 C37.33 20.1 37.66 10.2 38 0 C44.93 0 51.86 0 59 0 C59 22.77 59 45.54 59 69 C40 69 40 69 35.984375 65.66796875 C34.76171875 63.49414063 34.76171875 63.49414063 33.75 61.1875 C32.97467898 59.72227469 32.19862407 58.25743751 31.421875 56.79296875 C30.62265625 55.21128906 29.8234375 53.62960938 29 52 C26.69 48.37 24.38 44.74 22 41 C21.67 50.24 21.34 59.48 21 69 C14.07 69 7.14 69 0 69 C0 46.23 0 23.46 0 0 Z " fill="#FCFCFC" transform="translate(158,7)"/>
<path d="M0 0 C8.353125 -0.1546875 8.353125 -0.1546875 16.875 -0.3125 C19.47930908 -0.38078003 19.47930908 -0.38078003 22.13623047 -0.45043945 C30.62202469 -0.58102794 37.98466628 -0.46290826 45 5 C51.48136814 11.91373387 53.53263883 18.19375374 53.3828125 27.6328125 C52.64777226 34.09816642 50.05432267 39.08900217 45.3125 43.5 C44.549375 43.995 43.78625 44.49 43 45 C42.34 45.66 41.68 46.32 41 47 C41.55929199 47.6798999 41.55929199 47.6798999 42.12988281 48.37353516 C43.83943912 50.45503404 45.54473918 52.53998088 47.25 54.625 C48.12978516 55.69427734 48.12978516 55.69427734 49.02734375 56.78515625 C52.25269793 60.73530913 55.25905161 64.69861069 58 69 C53.83483453 69.29249758 49.6723194 69.4686497 45.5 69.625 C44.32695312 69.70878906 43.15390625 69.79257813 41.9453125 69.87890625 C33.32168476 70.12114298 33.32168476 70.12114298 29.40625 66.79980469 C26.89972571 63.69014799 24.78573815 60.57147631 23 57 C22.67 60.96 22.34 64.92 22 69 C14.74 69 7.48 69 0 69 C0 46.23 0 23.46 0 0 Z " fill="#FCFCFC" transform="translate(331,7)"/>
<path d="M0 0 C-4.09747544 7.90273497 -8.73315414 15.26606528 -13.73046875 22.6171875 C-14.11895996 23.19823242 -14.50745117 23.77927734 -14.90771484 24.37792969 C-15.87227861 25.81033059 -16.86568814 27.22321553 -17.86328125 28.6328125 C-19.31957531 31.66550735 -18.92054135 32.79797727 -18 36 C-16.61463046 38.58591831 -16.61463046 38.58591831 -14.83203125 41.16796875 C-14.18556641 42.14443359 -13.53910156 43.12089844 -12.87304688 44.12695312 C-12.19306641 45.13693359 -11.51308594 46.14691406 -10.8125 47.1875 C-6.02831955 54.36143692 -1.3583224 61.55773645 3 69 C-19.24277916 71.87209487 -19.24277916 71.87209487 -25.31103516 67.23339844 C-29.31127833 62.42556493 -31.88421539 56.85430509 -34 51 C-35.27118733 53.06228254 -36.54195965 55.12481891 -37.8125 57.1875 C-38.16892578 57.76564453 -38.52535156 58.34378906 -38.89257812 58.93945312 C-40.46142581 61.48703147 -41.98368071 63.96514993 -43.25390625 66.67773438 C-45 69 -45 69 -47.72729492 69.56762695 C-48.80084229 69.54144287 -49.87438965 69.51525879 -50.98046875 69.48828125 C-52.14384766 69.47216797 -53.30722656 69.45605469 -54.50585938 69.43945312 C-55.72080078 69.39755859 -56.93574219 69.35566406 -58.1875 69.3125 C-59.41404297 69.28994141 -60.64058594 69.26738281 -61.90429688 69.24414062 C-64.93741559 69.18513053 -67.96810222 69.10284592 -71 69 C-67.39980596 63.30471445 -63.77159487 57.63022346 -60.0703125 52 C-59.420625 51.01128906 -58.7709375 50.02257813 -58.1015625 49.00390625 C-56.76242241 46.96873089 -55.42121214 44.93491647 -54.078125 42.90234375 C-53.43617188 41.92394531 -52.79421875 40.94554687 -52.1328125 39.9375 C-51.26487061 38.62072266 -51.26487061 38.62072266 -50.37939453 37.27734375 C-48.86727607 34.97018148 -48.86727607 34.97018148 -48 32 C-48.75220439 30.17327541 -48.75220439 30.17327541 -50.01953125 28.34765625 C-50.46490234 27.65349609 -50.91027344 26.95933594 -51.36914062 26.24414062 C-51.84544922 25.52419922 -52.32175781 24.80425781 -52.8125 24.0625 C-53.7371587 22.63767917 -54.66038286 21.21192615 -55.58203125 19.78515625 C-55.99686768 19.15488525 -56.4117041 18.52461426 -56.83911133 17.87524414 C-58.02067134 15.9666085 -59.02681341 14.02166429 -60 12 C-59.01 12 -58.02 12 -57 12 C-56.67 11.01 -56.34 10.02 -56 9 C-52.36804504 6.57869669 -50.61650652 6.78977215 -46.3125 6.875 C-45.13300781 6.89304687 -43.95351563 6.91109375 -42.73828125 6.9296875 C-41.38283203 6.96449219 -41.38283203 6.96449219 -40 7 C-39.67 6.34 -39.34 5.68 -39 5 C-36.525 9.455 -36.525 9.455 -34 14 C-33.64035156 12.989375 -33.28070312 11.97875 -32.91015625 10.9375 C-26.42623348 -3.82757087 -14.30376813 -1.47662269 0 0 Z " fill="#FCFCFC" transform="translate(556,7)"/>
<path d="M0 0 C13.53 0 27.06 0 41 0 C41 6.6 41 13.2 41 20 C34.73 20 28.46 20 22 20 C22 21.65 22 23.3 22 25 C27.94 25 33.88 25 40 25 C40 31.6 40 38.2 40 45 C34.06 45 28.12 45 22 45 C22 52.92 22 60.84 22 69 C14.74 69 7.48 69 0 69 C0 46.23 0 23.46 0 0 Z " fill="#FCFCFC" transform="translate(27,7)"/>
<path d="M0 0 C15.18 0 30.36 0 46 0 C46 6.6 46 13.2 46 20 C42.04 20 38.08 20 34 20 C34 36.17 34 52.34 34 69 C26.74 69 19.48 69 12 69 C12 52.83 12 36.66 12 20 C8.04 20 4.08 20 0 20 C0 13.4 0 6.8 0 0 Z " fill="#FEFEFE" transform="translate(251,7)"/>
<path d="M0 0 C7.59 0 15.18 0 23 0 C23 22.77 23 45.54 23 69 C15.41 69 7.82 69 0 69 C0 46.23 0 23.46 0 0 Z " fill="#F7F8F8" transform="translate(426,7)"/>
<path d="M0 0 C7.26 0 14.52 0 22 0 C22 22.77 22 45.54 22 69 C14.74 69 7.48 69 0 69 C0 46.23 0 23.46 0 0 Z " fill="#FDFDFD" transform="translate(102,7)"/>
<path d="M0 0 C7.14445995 -0.66152407 12.0413666 1.00169876 18 5 C25.017667 11.04518131 28.16886453 18.66953604 29.06640625 27.828125 C28.77643672 37.31183427 24.60922596 44.50115777 18 51 C18.39380859 51.47421387 18.78761719 51.94842773 19.19335938 52.43701172 C20.96730684 54.57886959 22.73371714 56.72681814 24.5 58.875 C25.12003906 59.62136719 25.74007813 60.36773437 26.37890625 61.13671875 C27.25869141 62.20986328 27.25869141 62.20986328 28.15625 63.3046875 C28.97319336 64.2944458 28.97319336 64.2944458 29.80664062 65.30419922 C31 67 31 67 31 69 C30.34 69 29.68 69 29 69 C28.67 69.66 28.34 70.32 28 71 C21.87181364 63.94495272 15.89594047 56.99463697 11 49 C12.051875 48.38125 13.10375 47.7625 14.1875 47.125 C18.92315238 43.67913912 21.29648138 39.56281743 23 34 C24.05815251 26.25877898 23.67222916 19.43388933 19 13 C14.0754138 6.98106131 7.71278254 3.77127825 0 3 C0 2.01 0 1.02 0 0 Z " fill="#5B5B5B" transform="translate(360,4)"/>
<path d="M0 0 C0.33 0 0.66 0 1 0 C1.08729047 4.06236402 1.14048992 8.12448589 1.1875 12.1875 C1.21263672 13.33798828 1.23777344 14.48847656 1.26367188 15.67382812 C1.27333984 16.78564453 1.28300781 17.89746094 1.29296875 19.04296875 C1.3086792 20.06414795 1.32438965 21.08532715 1.34057617 22.13745117 C0.69686013 27.54789605 -2.186316 30.21462475 -6.125 33.65234375 C-12.25569679 40.42165479 -11.10580038 48.95488323 -11 57.5625 C-11.00810307 59.25588054 -11.01979057 60.94924792 -11.03515625 62.64257812 C-11.06481262 66.7627282 -11.0458093 70.88002608 -11 75 C-11.33 75 -11.66 75 -12 75 C-12.495 72.525 -12.495 72.525 -13 70 C-13.99 70.99 -13.99 70.99 -15 72 C-15 55.83 -15 39.66 -15 23 C-11.04 23 -7.08 23 -3 23 C-3 16.4 -3 9.8 -3 3 C-2.67 3 -2.34 3 -2 3 C-1.67 8.94 -1.34 14.88 -1 21 C-0.67 14.07 -0.34 7.14 0 0 Z " fill="#595A5A" transform="translate(300,4)"/>
<path d="M0 0 C2.625 -0.1875 2.625 -0.1875 5 0 C4.36556887 3.30343339 3.15634417 5.58393572 1.3046875 8.37890625 C0.75627197 9.21284912 0.20785645 10.04679199 -0.35717773 10.90600586 C-0.94055908 11.78264893 -1.52394043 12.65929199 -2.125 13.5625 C-2.711604 14.45912354 -3.29820801 15.35574707 -3.90258789 16.27954102 C-6.3892243 20.07844468 -8.88799782 23.86372664 -11.48828125 27.5859375 C-12.13152344 28.52695312 -12.77476562 29.46796875 -13.4375 30.4375 C-13.99308594 31.21996094 -14.54867187 32.00242188 -15.12109375 32.80859375 C-16.26072685 34.98642077 -16.26072685 34.98642077 -15.31323242 37.24169922 C-13.7732559 40.47625113 -11.88871547 43.37943378 -9.8671875 46.32421875 C-9.47048859 46.91169388 -9.07378967 47.49916901 -8.66506958 48.10444641 C-7.40615208 49.96851792 -6.14133394 51.82846013 -4.875 53.6875 C-3.20047358 56.14623033 -1.53201504 58.60891413 0.1328125 61.07421875 C0.87418457 62.16307373 1.61555664 63.25192871 2.37939453 64.3737793 C4 67 4 67 4 69 C3.34 69 2.68 69 2 69 C1.67 69.66 1.34 70.32 1 71 C-1.493276 67.28498811 -3.98338435 63.56787842 -6.47070312 59.84887695 C-7.31555928 58.58659091 -8.16124659 57.32486072 -9.0078125 56.0637207 C-10.23141144 54.24058714 -11.45190918 52.41540984 -12.671875 50.58984375 C-13.4050293 49.49534912 -14.13818359 48.40085449 -14.89355469 47.27319336 C-15.58868164 46.19303955 -16.28380859 45.11288574 -17 44 C-17.39401001 43.40873322 -17.78802002 42.81746643 -18.19396973 42.20828247 C-19.88403875 39.52615145 -21.01060315 37.60842683 -20.95458984 34.39428711 C-19.82561793 31.56261767 -18.42772349 29.22363588 -16.7265625 26.69140625 C-16.0665625 25.69689453 -15.4065625 24.70238281 -14.7265625 23.67773438 C-14.03304687 22.64970703 -13.33953125 21.62167969 -12.625 20.5625 C-11.26008083 18.52410098 -9.89800906 16.48379189 -8.5390625 14.44140625 C-7.93271973 13.54107666 -7.32637695 12.64074707 -6.70166016 11.71313477 C-4.92985108 8.88815424 -3.47367311 5.98912164 -2 3 C-1.34 2.01 -0.68 1.02 0 0 Z " fill="#616363" transform="translate(557,4)"/>
<path d="M0 0 C0.66 0 1.32 0 2 0 C2.23355931 4.18655065 2.37482637 8.37141874 2.5 12.5625 C2.60054687 14.33463867 2.60054687 14.33463867 2.703125 16.14257812 C2.89731328 24.80823028 2.89731328 24.80823028 0.25610352 28.31616211 C-1.74993602 30.05536504 -3.79808691 31.52334776 -6 33 C-6.680625 33.804375 -7.36125 34.60875 -8.0625 35.4375 C-10.94489443 37.76201164 -13.4270331 37.27484361 -17 37 C-17 39.97 -17 42.94 -17 46 C-17.66 45.67 -18.32 45.34 -19 45 C-19 37.08 -19 29.16 -19 21 C-12.73 21 -6.46 21 0 21 C0 14.07 0 7.14 0 0 Z " fill="#333434" transform="translate(68,31)"/>
<path d="M0 0 C3.875 4.75 3.875 4.75 5 7 C5.66 7 6.32 7 7 7 C8.17506952 5.42746809 8.17506952 5.42746809 9.3125 3.5 C10.625 1.55859375 10.625 1.55859375 12 0 C14.8125 -0.4375 14.8125 -0.4375 17 0 C18.47905238 2.95810476 18.12190903 5.9547155 18.09765625 9.1953125 C18.0962413 9.90275604 18.09482635 10.61019958 18.09336853 11.33908081 C18.087766 13.60109669 18.07521318 15.86301398 18.0625 18.125 C18.05748532 19.65755065 18.05292236 21.19010286 18.04882812 22.72265625 C18.03779577 26.48180888 18.02052952 30.24088772 18 34 C13.67313039 30.09710328 10.93121516 24.84696369 7.8828125 19.93994141 C6.7528632 18.12958728 5.60331514 16.332697 4.453125 14.53515625 C3.73312386 13.38098789 3.01433212 12.226064 2.296875 11.0703125 C1.64041992 10.02633301 0.98396484 8.98235352 0.30761719 7.90673828 C-1.15036068 4.6657591 -1.10447554 3.31724568 0 0 Z " fill="#434343" transform="translate(178,4)"/>
<path d="M0 0 C8.58 0 17.16 0 26 0 C26 23.1 26 46.2 26 70 C25.34 69.67 24.68 69.34 24 69 C24 47.22 24 25.44 24 3 C16.41 3 8.82 3 1 3 C0.67 2.01 0.34 1.02 0 0 Z " fill="#313333" transform="translate(425,4)"/>
<path d="M0 0 C7.92 0 15.84 0 24 0 C24 23.76 24 47.52 24 72 C23.34 72 22.68 72 22 72 C22 49.23 22 26.46 22 3 C15.07 3 8.14 3 1 3 C0.67 2.01 0.34 1.02 0 0 Z " fill="#313333" transform="translate(195,4)"/>
<path d="M0 0 C0.33 0 0.66 0 1 0 C1 8.91 1 17.82 1 27 C0.01 27 -0.98 27 -2 27 C-2 33.93 -2 40.86 -2 48 C-2.33 48 -2.66 48 -3 48 C-3 41.4 -3 34.8 -3 28 C-8.94 28 -14.88 28 -21 28 C-21 26.35 -21 24.7 -21 23 C-14.73 23 -8.46 23 -2 23 C-2.07887249 16.92706346 -2.07887249 16.92706346 -2.18017578 10.85449219 C-2.1851709 10.09297852 -2.19016602 9.33146484 -2.1953125 8.546875 C-2.20578613 7.77182617 -2.21625977 6.99677734 -2.22705078 6.19824219 C-1.97326556 3.74116461 -1.22444152 2.12688458 0 0 Z " fill="#4D4F4F" transform="translate(70,4)"/>
<path d="M0 0 C2.625 -0.1875 2.625 -0.1875 5 0 C4.36556887 3.30343339 3.15634417 5.58393572 1.3046875 8.37890625 C0.75643311 9.21325195 0.20817871 10.04759766 -0.35668945 10.90722656 C-0.94023193 11.7834668 -1.52377441 12.65970703 -2.125 13.5625 C-3.30896767 15.36043091 -4.49256402 17.15860639 -5.67578125 18.95703125 C-6.2476416 19.82279785 -6.81950195 20.68856445 -7.40869141 21.58056641 C-10.32767963 26.01861079 -13.16622026 30.50717102 -16 35 C-18 32 -18 32 -17.75683594 30.03588867 C-16.98645443 27.96356242 -16.08794263 26.28212878 -14.890625 24.42578125 C-14.4678125 23.76215576 -14.045 23.09853027 -13.609375 22.41479492 C-13.16078125 21.7210376 -12.7121875 21.02728027 -12.25 20.3125 C-8.98495559 15.18593968 -5.80388427 10.06315107 -2.9375 4.69921875 C-2.0451271 3.08179286 -1.02467945 1.53701917 0 0 Z " fill="#595B5B" transform="translate(557,4)"/>
<path d="M0 0 C0.66 0 1.32 0 2 0 C1.5950141 5.26481665 0.89400067 7.4798234 -3 11 C-2.60619141 11.47421387 -2.21238281 11.94842773 -1.80664062 12.43701172 C-0.03269316 14.57886959 1.73371714 16.72681814 3.5 18.875 C4.12003906 19.62136719 4.74007813 20.36773437 5.37890625 21.13671875 C5.96542969 21.85214844 6.55195313 22.56757812 7.15625 23.3046875 C7.70087891 23.96452637 8.24550781 24.62436523 8.80664062 25.30419922 C10 27 10 27 10 29 C9.34 29 8.68 29 8 29 C7.67 29.66 7.34 30.32 7 31 C0.87181364 23.94495272 -5.10405953 16.99463697 -10 9 C-9.52949219 8.68546875 -9.05898438 8.3709375 -8.57421875 8.046875 C-5.06267139 5.63314058 -2.47459181 3.51652521 0 0 Z " fill="#5B5C5C" transform="translate(381,44)"/>
<path d="M0 0 C13.2 0 26.4 0 40 0 C39.67 1.32 39.34 2.64 39 4 C19.695 3.505 19.695 3.505 0 3 C0 2.01 0 1.02 0 0 Z " fill="#323433" transform="translate(30,4)"/>
<path d="M0 0 C9.57 0 19.14 0 29 0 C28.34 0.99 27.68 1.98 27 3 C24.63330078 3.32128906 24.63330078 3.32128906 21.6953125 3.265625 C20.10783203 3.27142578 20.10783203 3.27142578 18.48828125 3.27734375 C16.25372364 3.25917661 14.01923615 3.22542747 11.78515625 3.17578125 C6.07356995 2.96890893 6.07356995 2.96890893 1.35058594 5.60742188 C0.06473043 7.72757008 0.06473043 7.72757008 -1 11 C-1.99 11 -2.98 11 -4 11 C-4.75 9.25 -4.75 9.25 -5 7 C-3.125 4.9375 -3.125 4.9375 -1 3 C-0.67 2.01 -0.34 1.02 0 0 Z " fill="#323434" transform="translate(528,4)"/>
<path d="M0 0 C5.41538462 -0.36923077 5.41538462 -0.36923077 8.375 1.5 C8.91125 1.995 9.4475 2.49 10 3 C9.125 9.875 9.125 9.875 8 11 C5.32941149 11.14115161 2.67567762 11.04247107 0 11 C0 7.37 0 3.74 0 0 Z " fill="#3D3E3D" transform="translate(353,27)"/>
<path d="M0 0 C1.75 0.0625 1.75 0.0625 4 1 C5.59501537 3.24164322 6.74543018 5.53566643 8 8 C9.98 5.69 11.96 3.38 14 1 C14 1.99 14 2.98 14 4 C13.505 4.474375 13.01 4.94875 12.5 5.4375 C10.53831211 7.11993064 10.53831211 7.11993064 11 11 C11.66 11.33 12.32 11.66 13 12 C12.01 13.98 11.02 15.96 10 18 C7.25376277 15.49036167 5.32948572 12.67889094 3.3125 9.5625 C2.37857422 8.14130859 2.37857422 8.14130859 1.42578125 6.69140625 C0 4 0 4 0 0 Z " fill="#4D4F4F" transform="translate(513,4)"/>
<path d="M0 0 C0.66 0.33 1.32 0.66 2 1 C2.28875 1.886875 2.5775 2.77375 2.875 3.6875 C3.8722002 7.09908272 3.8722002 7.09908272 6.0625 10.0625 C7.92168104 12.88125835 8.61101539 14.69363079 9 18 C5.91809855 17.69932669 5.0758988 17.09029078 3.04296875 14.671875 C2.12451172 13.22554687 2.12451172 13.22554687 1.1875 11.75 C0.56230469 10.79609375 -0.06289063 9.8421875 -0.70703125 8.859375 C-2.16861153 5.62711891 -2.14241765 4.30422335 -1 1 C-0.67 0.67 -0.34 0.34 0 0 Z " fill="#595A5A" transform="translate(538,35)"/>
<path d="M0 0 C0.74507812 0.10570313 1.49015625 0.21140625 2.2578125 0.3203125 C0.88448098 4.14504079 -0.88346456 7.20460093 -3.2421875 10.5078125 C-3.850625 11.36761719 -4.4590625 12.22742188 -5.0859375 13.11328125 C-6.7421875 15.3203125 -6.7421875 15.3203125 -8.7421875 17.3203125 C-9.70101978 13.68967791 -9.96042526 11.83947438 -8.484375 8.328125 C-7.86820313 7.37679688 -7.25203125 6.42546875 -6.6171875 5.4453125 C-6.01648438 4.47851562 -5.41578125 3.51171875 -4.796875 2.515625 C-2.7421875 0.3203125 -2.7421875 0.3203125 0 0 Z " fill="#656665" transform="translate(548.7421875,21.6796875)"/>
<path d="M0 0 C3.32851213 2.98418329 5.3205729 5.84562769 7 10 C6.67 10.99 6.34 11.98 6 13 C0.25 14.125 0.25 14.125 -2 13 C-1.67 11.02 -1.34 9.04 -1 7 C-0.01 6.67 0.98 6.34 2 6 C1.34 5.01 0.68 4.02 0 3 C0 2.01 0 1.02 0 0 Z " fill="#EEF0F0" transform="translate(546,57)"/>
<path d="M0 0 C6.27 0 12.54 0 19 0 C19 0.99 19 1.98 19 3 C12.73 3 6.46 3 0 3 C0 2.01 0 1.02 0 0 Z " fill="#323232" transform="translate(49,28)"/>
<path d="M0 0 C0.99 0.33 1.98 0.66 3 1 C2.154375 1.66 1.30875 2.32 0.4375 3 C-2.15059105 5.14354835 -4.32391011 7.44103461 -6.5 10 C-9.41988836 13.43363263 -12.45035713 16.22954703 -16 19 C-16.66 18.67 -17.32 18.34 -18 18 C-16.625 16.5 -16.625 16.5 -15 15 C-14.34 15 -13.68 15 -13 15 C-12.78601563 14.45859375 -12.57203125 13.9171875 -12.3515625 13.359375 C-10.51922057 10.1607203 -8.00203394 7.79035516 -5.375 5.25 C-4.859375 4.74339844 -4.34375 4.23679687 -3.8125 3.71484375 C-2.54616661 2.47196098 -1.2736856 1.23534724 0 0 Z " fill="#808080" transform="translate(153,4)"/>
<path d="M0 0 C8.57142857 -0.28571429 8.57142857 -0.28571429 12 2 C12 2.99 12 3.98 12 5 C8.875 4.47916667 5.75 3.95833333 2.625 3.4375 C1.75875 3.293125 0.8925 3.14875 0 3 C0 2.01 0 1.02 0 0 Z " fill="#575A59" transform="translate(360,4)"/>
<path d="M0 0 C4.78504172 2.48454089 7.86077669 4.47951843 11 9 C5.59016393 9.49180328 5.59016393 9.49180328 2.75 7.125 C2.1725 6.42375 1.595 5.7225 1 5 C0.34 4.34 -0.32 3.68 -1 3 C-0.67 2.01 -0.34 1.02 0 0 Z " fill="#6B6D6D" transform="translate(372,6)"/>
<path d="M0 0 C0.66 0 1.32 0 2 0 C2.32136655 4.60625394 1.91033076 7.33513904 -1 11 C-1.99 11 -2.98 11 -4 11 C-4.75 9.25 -4.75 9.25 -5 7 C-3.125 4.9375 -3.125 4.9375 -1 3 C-0.67 2.01 -0.34 1.02 0 0 Z " fill="#3B3C3B" transform="translate(528,4)"/>
<path d="M0 0 C3.16717283 1.58358642 4.73268318 2.45263699 6.3125 5.6875 C6.539375 6.450625 6.76625 7.21375 7 8 C6.34 8 5.68 8 5 8 C4.67 8.66 4.34 9.32 4 10 C3.13342884 8.90554162 2.28207276 7.79902219 1.4375 6.6875 C0.96183594 6.07261719 0.48617187 5.45773438 -0.00390625 4.82421875 C-0.33261719 4.22222656 -0.66132812 3.62023437 -1 3 C-0.67 2.01 -0.34 1.02 0 0 Z " fill="#5A5B5B" transform="translate(554,65)"/>
<path d="M0 0 C1.11375 0.185625 1.11375 0.185625 2.25 0.375 C1.00023244 4.02816671 0.57901247 5.15565836 -2.75 7.375 C-4.9375 7 -4.9375 7 -6.75 6.375 C-3.42692308 0.46730769 -3.42692308 0.46730769 0 0 Z " fill="#717473" transform="translate(548.75,21.625)"/>
<path d="M0 0 C-0.17625835 2.37948772 -0.69719773 3.70225849 -2.40234375 5.37890625 C-3.90649092 6.62115486 -5.45129851 7.81376056 -7 9 C-6.39285714 3.53571429 -6.39285714 3.53571429 -4.625 1.125 C-3 0 -3 0 0 0 Z " fill="#3C3C3C" transform="translate(64,59)"/>
<path d="M0 0 C0.66 0 1.32 0 2 0 C1.67 2.31 1.34 4.62 1 7 C-0.32 6.67 -1.64 6.34 -3 6 C-3.33 6.66 -3.66 7.32 -4 8 C-4 4.06830895 -2.60580385 2.83572772 0 0 Z " fill="#4A4C4C" transform="translate(381,44)"/>
<path d="M0 0 C2.31 0.33 4.62 0.66 7 1 C7.33 2.32 7.66 3.64 8 5 C7.01 5 6.02 5 5 5 C4.67 4.34 4.34 3.68 4 3 C2.68 3.33 1.36 3.66 0 4 C0 2.68 0 1.36 0 0 Z " fill="#EEF0EF" transform="translate(172,9)"/>
<path d="M0 0 C2.25245881 2.68841859 3.88213958 4.64641875 5 8 C4.01 9.485 4.01 9.485 3 11 C-1.06153846 5.70769231 -1.06153846 5.70769231 -0.75 2.125 C-0.5025 1.42375 -0.255 0.7225 0 0 Z " fill="#4A4B4B" transform="translate(178,4)"/>
<path d="M0 0 C2.4375 1.1875 2.4375 1.1875 5 3 C5.8125 5.6875 5.8125 5.6875 6 8 C4.125 7.6875 4.125 7.6875 2 7 C0 4 0 4 0 0 Z " fill="#4D4E4E" transform="translate(541,45)"/>
<path d="M0 0 C1.32 0.33 2.64 0.66 4 1 C4 2.65 4 4.3 4 6 C2.68 6.33 1.36 6.66 0 7 C0 4.69 0 2.38 0 0 Z " fill="#FCFEFD" transform="translate(158,25)"/>
<path d="M0 0 C0.78375 0.04125 1.5675 0.0825 2.375 0.125 C2.125 2 2.125 2 1.375 4.125 C-0.6875 5.375 -0.6875 5.375 -2.625 6.125 C-2.625 5.135 -2.625 4.145 -2.625 3.125 C-3.285 2.795 -3.945 2.465 -4.625 2.125 C-2.625 0.125 -2.625 0.125 0 0 Z " fill="#4F5251" transform="translate(559.625,3.875)"/>
<path d="M0 0 C2.55028983 1.27514492 2.93081711 2.40341297 4 5 C4 5.99 4 6.98 4 8 C3.01 8 2.02 8 1 8 C0.01 6.02 -0.98 4.04 -2 2 C-1.34 2 -0.68 2 0 2 C0 1.34 0 0.68 0 0 Z " fill="#EDEFEF" transform="translate(532,68)"/>
<path d="M0 0 C1.65 0 3.3 0 5 0 C5.66 1.65 6.32 3.3 7 5 C5.68 5 4.36 5 3 5 C1.25 2.5 1.25 2.5 0 0 Z " fill="#3A3C3C" transform="translate(371,53)"/>
<path d="M0 0 C-0.33 0.763125 -0.66 1.52625 -1 2.3125 C-2.17436686 4.99069135 -2.17436686 4.99069135 -2 8 C-2.66 7.34 -3.32 6.68 -4 6 C-4 5.01 -4 4.02 -4 3 C-5.32 2.67 -6.64 2.34 -8 2 C-2.25 0 -2.25 0 0 0 Z " fill="#767A79" transform="translate(380,50)"/>
<path d="M0 0 C0.33 0.99 0.66 1.98 1 3 C-0.4375 5.6875 -0.4375 5.6875 -2 8 C-2.12375 7.360625 -2.2475 6.72125 -2.375 6.0625 C-2.684375 5.0415625 -2.684375 5.0415625 -3 4 C-3.66 3.67 -4.32 3.34 -5 3 C-4.34 2.34 -3.68 1.68 -3 1 C-2.01 1.33 -1.02 1.66 0 2 C0 1.34 0 0.68 0 0 Z " fill="#868786" transform="translate(386,40)"/>
<path d="M0 0 C0.66 0.66 1.32 1.32 2 2 C2.66 1.67 3.32 1.34 4 1 C2.25 5.875 2.25 5.875 0 7 C-0.33 6.34 -0.66 5.68 -1 5 C-1.99 5.495 -1.99 5.495 -3 6 C-1.125 1.125 -1.125 1.125 0 0 Z " fill="#7D7F7E" transform="translate(556,7)"/>
<path d="M0 0 C0.33 0.66 0.66 1.32 1 2 C-3.82142857 8.29464286 -3.82142857 8.29464286 -8 9 C-7.04270084 7.87411986 -6.08412105 6.7493285 -5.125 5.625 C-4.59132812 4.99851562 -4.05765625 4.37203125 -3.5078125 3.7265625 C-2.38567993 2.44163349 -1.20628025 1.20628025 0 0 Z " fill="#878888" transform="translate(243,7)"/>
<path d="M0 0 C0.99 0.33 1.98 0.66 3 1 C4.1875 3.5625 4.1875 3.5625 5 6 C3.35 5.67 1.7 5.34 0 5 C-0.5625 3.0625 -0.5625 3.0625 -1 1 C-0.67 0.67 -0.34 0.34 0 0 Z " fill="#686A6A" transform="translate(552,61)"/>
<path d="M0 0 C1.24546405 2.49092811 0.7767578 3.41080733 0 6 C-1.98 6.33 -3.96 6.66 -6 7 C-4.02 4.69 -2.04 2.38 0 0 Z " fill="#757575" transform="translate(419,7)"/>
<path d="M0 0 C0.99 0.33 1.98 0.66 3 1 C-0.465 3.97 -0.465 3.97 -4 7 C-4.66 6.67 -5.32 6.34 -6 6 C-4.02 4.02 -2.04 2.04 0 0 Z " fill="#868787" transform="translate(153,4)"/>
<path d="M0 0 C2.375 0.25 2.375 0.25 5 1 C6.3125 3.0625 6.3125 3.0625 7 5 C4.0625 4.1875 4.0625 4.1875 1 3 C0.67 2.01 0.34 1.02 0 0 Z " fill="#5B5D5D" transform="translate(378,14)"/>
</svg>
